g SkydomeLod2
v 0.8806219 0.4738196 0
v -0.02997108 0.9995508 0
v 0.02997108 -0.9995508 0
v -0.8806219 -0.4738196 0
v -0.2628655 -0.4552965 0.8506508
v 0.2628655 0.4552965 0.8506508
v -0.2628655 -0.4552965 -0.8506508
v 0.2628655 0.4552965 -0.8506508
v -0.7366852 0.4253254 -0.5257311
v -0.7366852 0.4253254 0.5257311
v 0.7366852 -0.4253254 -0.5257311
v 0.7366852 -0.4253254 0.5257311
v 0.9506293 0.02850421 0.309017
v 0.5875212 0.01761657 0.809017
v 0.6721251 0.5461208 0.5
v 0.1368919 0.8551378 0.5
v 0.5 0.8660254 0
v 0.1368919 0.8551378 -0.5
v 0.6721251 0.5461208 -0.5
v 0.5875212 0.01761657 -0.809017
v 0.9506293 0.02850421 -0.309017
v 0.8660254 -0.5 0
v -0.2785042 0.5176166 0.809017
v -0.4506292 0.8375212 0.309017
v 0.2785042 -0.5176166 0.809017
v 0 0 1
v 0.4506292 -0.8375212 -0.309017
v 0.4506292 -0.8375212 0.309017
v 0 0 -1
v 0.2785042 -0.5176166 -0.809017
v -0.4506292 0.8375212 -0.309017
v -0.2785042 0.5176166 -0.809017
v -0.9506293 -0.02850421 0.309017
v -0.5875212 -0.01761657 0.809017
v -0.6721251 -0.5461208 0.5
v -0.1368919 -0.8551378 0.5
v -0.5 -0.8660254 0
v -0.1368919 -0.8551378 -0.5
v -0.6721251 -0.5461208 -0.5
v -0.5875212 -0.01761657 -0.809017
v -0.9506293 -0.02850421 -0.309017
v -0.8660254 0.5 0
v 0.9518547 0.2610998 0.160622
v 0.8531325 0.3020982 0.4253254
v 0.8070928 0.5301485 0.2598919
v 0.6883011 -0.2119205 0.6937805
v 0.8086536 0.02424712 0.5877852
v 0.8770388 -0.2062612 0.4338885
v 0.485993 0.5205205 0.7020464
v 0.6622353 0.2963743 0.6881909
v 0.4420173 0.2458126 0.8626685
v 0.6162227 0.7424092 0.2628656
v 0.7176249 0.6964298 0
v 0.2077875 0.6811426 0.7020465
v 0.4253255 0.7366852 0.5257311
v 0.2443134 0.9696963 0
v 0.3348339 0.9048691 0.2628656
v 0.05557573 0.9640371 0.2598919
v 0.6162227 0.7424092 -0.2628656
v 0.8070928 0.5301485 -0.2598919
v 0.05557573 0.9640371 -0.2598919
v 0.3348339 0.9048691 -0.2628656
v 0.485993 0.5205205 -0.7020464
v 0.4253255 0.7366852 -0.5257311
v 0.2077875 0.6811426 -0.7020465
v 0.8531325 0.3020982 -0.4253254
v 0.9518547 0.2610998 -0.160622
v 0.4420173 0.2458126 -0.8626685
v 0.6622353 0.2963743 -0.6881909
v 0.8770388 -0.2062612 -0.4338885
v 0.8086536 0.02424712 -0.5877852
v 0.6883011 -0.2119205 -0.6937805
v 0.9995508 0.02997109 0
v 0.833063 -0.4809692 -0.2732665
v 0.9550719 -0.24788 -0.1624599
v 0.9550719 -0.24788 0.1624599
v 0.833063 -0.4809692 0.2732665
v -0.1649415 0.8898835 0.4253254
v -0.2498083 0.9548803 0.160622
v -0.008128732 0.5057045 0.8626685
v -0.07444999 0.7216997 0.6881909
v -0.6171468 0.6564072 0.4338885
v -0.3833281 0.7124381 0.5877852
v -0.527679 0.490126 0.6937805
v 0.3088782 0.009261577 0.9510565
v 0.1366332 0.2366557 0.9619383
v 0.527679 -0.490126 0.6937805
v 0.4552965 -0.2628655 0.8506508
v -0.1366332 -0.2366557 0.9619383
v 0.1464183 -0.2721272 0.9510565
v 0.008128732 -0.5057045 0.8626685
v 0.6922064 -0.7031766 0.1624599
v 0.6171468 -0.6564072 0.4338885
v 0.6171468 -0.6564072 -0.4338885
v 0.6922064 -0.7031766 -0.1624599
v 0.2498083 -0.9548803 0.160622
v 0.4738196 -0.8806219 0
v 0.2498083 -0.9548803 -0.160622
v 0.4552965 -0.2628655 -0.8506508
v 0.527679 -0.490126 -0.6937805
v 0.1366332 0.2366557 -0.9619383
v 0.3088782 0.009261577 -0.9510565
v 0.008128732 -0.5057045 -0.8626685
v 0.1464183 -0.2721272 -0.9510565
v -0.1366332 -0.2366557 -0.9619383
v -0.07444999 0.7216997 -0.6881909
v -0.008128732 0.5057045 -0.8626685
v -0.2498083 0.9548803 -0.160622
v -0.1649415 0.8898835 -0.4253254
v -0.527679 0.490126 -0.6937805
v -0.3833281 0.7124381 -0.5877852
v -0.6171468 0.6564072 -0.4338885
v -0.9518547 -0.2610998 0.160622
v -0.8531325 -0.3020982 0.4253254
v -0.8070928 -0.5301485 0.2598919
v -0.6883011 0.2119205 0.6937805
v -0.8086536 -0.02424712 0.5877852
v -0.8770388 0.2062612 0.4338885
v -0.485993 -0.5205205 0.7020464
v -0.6622353 -0.2963743 0.6881909
v -0.4420173 -0.2458126 0.8626685
v -0.6162227 -0.7424092 0.2628656
v -0.7176249 -0.6964298 0
v -0.2077875 -0.6811426 0.7020465
v -0.4253255 -0.7366852 0.5257311
v -0.2443134 -0.9696963 0
v -0.3348339 -0.9048691 0.2628656
v -0.05557573 -0.9640371 0.2598919
v -0.6162227 -0.7424092 -0.2628656
v -0.8070928 -0.5301485 -0.2598919
v -0.05557573 -0.9640371 -0.2598919
v -0.3348339 -0.9048691 -0.2628656
v -0.485993 -0.5205205 -0.7020464
v -0.4253255 -0.7366852 -0.5257311
v -0.2077875 -0.6811426 -0.7020465
v -0.8531325 -0.3020982 -0.4253254
v -0.9518547 -0.2610998 -0.160622
v -0.4420173 -0.2458126 -0.8626685
v -0.6622353 -0.2963743 -0.6881909
v -0.8770388 0.2062612 -0.4338885
v -0.8086536 -0.02424712 -0.5877852
v -0.6883011 0.2119205 -0.6937805
v -0.9995508 -0.02997109 0
v -0.833063 0.4809692 -0.2732665
v -0.9550719 0.24788 -0.1624599
v -0.9550719 0.24788 0.1624599
v -0.833063 0.4809692 0.2732665
v -0.3088782 -0.009261577 0.9510565
v -0.4552965 0.2628655 0.8506508
v -0.1464183 0.2721272 0.9510565
v 0.1649415 -0.8898835 0.4253254
v 0.07444999 -0.7216997 0.6881909
v 0.3833281 -0.7124381 0.5877852
v 0.07444999 -0.7216997 -0.6881909
v 0.1649415 -0.8898835 -0.4253254
v 0.3833281 -0.7124381 -0.5877852
v -0.4552965 0.2628655 -0.8506508
v -0.3088782 -0.009261577 -0.9510565
v -0.1464183 0.2721272 -0.9510565
v -0.6922064 0.7031766 0.1624599
v -0.6922064 0.7031766 -0.1624599
v -0.4738196 0.8806219 0
vn 0.8806219 0.4738196 0
vn -0.02997108 0.9995508 0
vn 0.02997108 -0.9995508 0
vn -0.8806219 -0.4738196 0
vn -0.2628655 -0.4552965 0.8506508
vn 0.2628655 0.4552965 0.8506508
vn -0.2628655 -0.4552965 -0.8506508
vn 0.2628655 0.4552965 -0.8506508
vn -0.7366852 0.4253254 -0.5257311
vn -0.7366852 0.4253254 0.5257311
vn 0.7366852 -0.4253254 -0.5257311
vn 0.7366852 -0.4253254 0.5257311
vn 0.9506293 0.02850421 0.309017
vn 0.5875212 0.01761657 0.809017
vn 0.6721251 0.5461208 0.5
vn 0.1368919 0.8551378 0.5
vn 0.5 0.8660254 0
vn 0.1368919 0.8551378 -0.5
vn 0.6721251 0.5461208 -0.5
vn 0.5875212 0.01761657 -0.809017
vn 0.9506293 0.02850421 -0.309017
vn 0.8660254 -0.5 0
vn -0.2785042 0.5176166 0.809017
vn -0.4506292 0.8375212 0.309017
vn 0.2785042 -0.5176166 0.809017
vn 0 0 1
vn 0.4506292 -0.8375212 -0.309017
vn 0.4506292 -0.8375212 0.309017
vn 0 0 -1
vn 0.2785042 -0.5176166 -0.809017
vn -0.4506292 0.8375212 -0.309017
vn -0.2785042 0.5176166 -0.809017
vn -0.9506293 -0.02850421 0.309017
vn -0.5875212 -0.01761657 0.809017
vn -0.6721251 -0.5461208 0.5
vn -0.1368919 -0.8551378 0.5
vn -0.5 -0.8660254 0
vn -0.1368919 -0.8551378 -0.5
vn -0.6721251 -0.5461208 -0.5
vn -0.5875212 -0.01761657 -0.809017
vn -0.9506293 -0.02850421 -0.309017
vn -0.8660254 0.5 0
vn 0.9518547 0.2610998 0.160622
vn 0.8531325 0.3020982 0.4253254
vn 0.8070928 0.5301485 0.2598919
vn 0.6883011 -0.2119205 0.6937805
vn 0.8086536 0.02424712 0.5877852
vn 0.8770388 -0.2062612 0.4338885
vn 0.485993 0.5205205 0.7020464
vn 0.6622353 0.2963743 0.6881909
vn 0.4420173 0.2458126 0.8626685
vn 0.6162227 0.7424092 0.2628656
vn 0.7176249 0.6964298 0
vn 0.2077875 0.6811426 0.7020465
vn 0.4253255 0.7366852 0.5257311
vn 0.2443134 0.9696963 0
vn 0.3348339 0.9048691 0.2628656
vn 0.05557573 0.9640371 0.2598919
vn 0.6162227 0.7424092 -0.2628656
vn 0.8070928 0.5301485 -0.2598919
vn 0.05557573 0.9640371 -0.2598919
vn 0.3348339 0.9048691 -0.2628656
vn 0.485993 0.5205205 -0.7020464
vn 0.4253255 0.7366852 -0.5257311
vn 0.2077875 0.6811426 -0.7020465
vn 0.8531325 0.3020982 -0.4253254
vn 0.9518547 0.2610998 -0.160622
vn 0.4420173 0.2458126 -0.8626685
vn 0.6622353 0.2963743 -0.6881909
vn 0.8770388 -0.2062612 -0.4338885
vn 0.8086536 0.02424712 -0.5877852
vn 0.6883011 -0.2119205 -0.6937805
vn 0.9995508 0.02997109 0
vn 0.833063 -0.4809692 -0.2732665
vn 0.9550719 -0.24788 -0.1624599
vn 0.9550719 -0.24788 0.1624599
vn 0.833063 -0.4809692 0.2732665
vn -0.1649415 0.8898835 0.4253254
vn -0.2498083 0.9548803 0.160622
vn -0.008128732 0.5057045 0.8626685
vn -0.07444999 0.7216997 0.6881909
vn -0.6171468 0.6564072 0.4338885
vn -0.3833281 0.7124381 0.5877852
vn -0.527679 0.490126 0.6937805
vn 0.3088782 0.009261577 0.9510565
vn 0.1366332 0.2366557 0.9619383
vn 0.527679 -0.490126 0.6937805
vn 0.4552965 -0.2628655 0.8506508
vn -0.1366332 -0.2366557 0.9619383
vn 0.1464183 -0.2721272 0.9510565
vn 0.008128732 -0.5057045 0.8626685
vn 0.6922064 -0.7031766 0.1624599
vn 0.6171468 -0.6564072 0.4338885
vn 0.6171468 -0.6564072 -0.4338885
vn 0.6922064 -0.7031766 -0.1624599
vn 0.2498083 -0.9548803 0.160622
vn 0.4738196 -0.8806219 0
vn 0.2498083 -0.9548803 -0.160622
vn 0.4552965 -0.2628655 -0.8506508
vn 0.527679 -0.490126 -0.6937805
vn 0.1366332 0.2366557 -0.9619383
vn 0.3088782 0.009261577 -0.9510565
vn 0.008128732 -0.5057045 -0.8626685
vn 0.1464183 -0.2721272 -0.9510565
vn -0.1366332 -0.2366557 -0.9619383
vn -0.07444999 0.7216997 -0.6881909
vn -0.008128732 0.5057045 -0.8626685
vn -0.2498083 0.9548803 -0.160622
vn -0.1649415 0.8898835 -0.4253254
vn -0.527679 0.490126 -0.6937805
vn -0.3833281 0.7124381 -0.5877852
vn -0.6171468 0.6564072 -0.4338885
vn -0.9518547 -0.2610998 0.160622
vn -0.8531325 -0.3020982 0.4253254
vn -0.8070928 -0.5301485 0.2598919
vn -0.6883011 0.2119205 0.6937805
vn -0.8086536 -0.02424712 0.5877852
vn -0.8770388 0.2062612 0.4338885
vn -0.485993 -0.5205205 0.7020464
vn -0.6622353 -0.2963743 0.6881909
vn -0.4420173 -0.2458126 0.8626685
vn -0.6162227 -0.7424092 0.2628656
vn -0.7176249 -0.6964298 0
vn -0.2077875 -0.6811426 0.7020465
vn -0.4253255 -0.7366852 0.5257311
vn -0.2443134 -0.9696963 0
vn -0.3348339 -0.9048691 0.2628656
vn -0.05557573 -0.9640371 0.2598919
vn -0.6162227 -0.7424092 -0.2628656
vn -0.8070928 -0.5301485 -0.2598919
vn -0.05557573 -0.9640371 -0.2598919
vn -0.3348339 -0.9048691 -0.2628656
vn -0.485993 -0.5205205 -0.7020464
vn -0.4253255 -0.7366852 -0.5257311
vn -0.2077875 -0.6811426 -0.7020465
vn -0.8531325 -0.3020982 -0.4253254
vn -0.9518547 -0.2610998 -0.160622
vn -0.4420173 -0.2458126 -0.8626685
vn -0.6622353 -0.2963743 -0.6881909
vn -0.8770388 0.2062612 -0.4338885
vn -0.8086536 -0.02424712 -0.5877852
vn -0.6883011 0.2119205 -0.6937805
vn -0.9995508 -0.02997109 0
vn -0.833063 0.4809692 -0.2732665
vn -0.9550719 0.24788 -0.1624599
vn -0.9550719 0.24788 0.1624599
vn -0.833063 0.4809692 0.2732665
vn -0.3088782 -0.009261577 0.9510565
vn -0.4552965 0.2628655 0.8506508
vn -0.1464183 0.2721272 0.9510565
vn 0.1649415 -0.8898835 0.4253254
vn 0.07444999 -0.7216997 0.6881909
vn 0.3833281 -0.7124381 0.5877852
vn 0.07444999 -0.7216997 -0.6881909
vn 0.1649415 -0.8898835 -0.4253254
vn 0.3833281 -0.7124381 -0.5877852
vn -0.4552965 0.2628655 -0.8506508
vn -0.3088782 -0.009261577 -0.9510565
vn -0.1464183 0.2721272 -0.9510565
vn -0.6922064 0.7031766 0.1624599
vn -0.6922064 0.7031766 -0.1624599
vn -0.4738196 0.8806219 0
vt 0 0
vt 0 0
vt 0 0
vt 0 0
vt 0 0
vt 0 0
vt 0 0
vt 0 0
vt 0 0
vt 0 0
vt 0 0
vt 0 0
vt 0 0
vt 0 0
vt 0 0
vt 0 0
vt 0 0
vt 0 0
vt 0 0
vt 0 0
vt 0 0
vt 0 0
vt 0 0
vt 0 0
vt 0 0
vt 0 0
vt 0 0
vt 0 0
vt 0 0
vt 0 0
vt 0 0
vt 0 0
vt 0 0
vt 0 0
vt 0 0
vt 0 0
vt 0 0
vt 0 0
vt 0 0
vt 0 0
vt 0 0
vt 0 0
vt 0 0
vt 0 0
vt 0 0
vt 0 0
vt 0 0
vt 0 0
vt 0 0
vt 0 0
vt 0 0
vt 0 0
vt 0 0
vt 0 0
vt 0 0
vt 0 0
vt 0 0
vt 0 0
vt 0 0
vt 0 0
vt 0 0
vt 0 0
vt 0 0
vt 0 0
vt 0 0
vt 0 0
vt 0 0
vt 0 0
vt 0 0
vt 0 0
vt 0 0
vt 0 0
vt 0 0
vt 0 0
vt 0 0
vt 0 0
vt 0 0
vt 0 0
vt 0 0
vt 0 0
vt 0 0
vt 0 0
vt 0 0
vt 0 0
vt 0 0
vt 0 0
vt 0 0
vt 0 0
vt 0 0
vt 0 0
vt 0 0
vt 0 0
vt 0 0
vt 0 0
vt 0 0
vt 0 0
vt 0 0
vt 0 0
vt 0 0
vt 0 0
vt 0 0
vt 0 0
vt 0 0
vt 0 0
vt 0 0
vt 0 0
vt 0 0
vt 0 0
vt 0 0
vt 0 0
vt 0 0
vt 0 0
vt 0 0
vt 0 0
vt 0 0
vt 0 0
vt 0 0
vt 0 0
vt 0 0
vt 0 0
vt 0 0
vt 0 0
vt 0 0
vt 0 0
vt 0 0
vt 0 0
vt 0 0
vt 0 0
vt 0 0
vt 0 0
vt 0 0
vt 0 0
vt 0 0
vt 0 0
vt 0 0
vt 0 0
vt 0 0
vt 0 0
vt 0 0
vt 0 0
vt 0 0
vt 0 0
vt 0 0
vt 0 0
vt 0 0
vt 0 0
vt 0 0
vt 0 0
vt 0 0
vt 0 0
vt 0 0
vt 0 0
vt 0 0
vt 0 0
vt 0 0
vt 0 0
vt 0 0
vt 0 0
vt 0 0
vt 0 0
vt 0 0
vt 0 0
f 1/1/1 45/45/45 43/43/43
f 13/13/13 43/43/43 44/44/44
f 15/15/15 44/44/44 45/45/45
f 43/43/43 45/45/45 44/44/44
f 12/12/12 48/48/48 46/46/46
f 14/14/14 46/46/46 47/47/47
f 13/13/13 47/47/47 48/48/48
f 46/46/46 48/48/48 47/47/47
f 6/6/6 51/51/51 49/49/49
f 15/15/15 49/49/49 50/50/50
f 14/14/14 50/50/50 51/51/51
f 49/49/49 51/51/51 50/50/50
f 13/13/13 44/44/44 47/47/47
f 14/14/14 47/47/47 50/50/50
f 15/15/15 50/50/50 44/44/44
f 47/47/47 44/44/44 50/50/50
f 1/1/1 53/53/53 45/45/45
f 15/15/15 45/45/45 52/52/52
f 17/17/17 52/52/52 53/53/53
f 45/45/45 53/53/53 52/52/52
f 6/6/6 49/49/49 54/54/54
f 16/16/16 54/54/54 55/55/55
f 15/15/15 55/55/55 49/49/49
f 54/54/54 49/49/49 55/55/55
f 2/2/2 58/58/58 56/56/56
f 17/17/17 56/56/56 57/57/57
f 16/16/16 57/57/57 58/58/58
f 56/56/56 58/58/58 57/57/57
f 15/15/15 52/52/52 55/55/55
f 16/16/16 55/55/55 57/57/57
f 17/17/17 57/57/57 52/52/52
f 55/55/55 52/52/52 57/57/57
f 1/1/1 60/60/60 53/53/53
f 17/17/17 53/53/53 59/59/59
f 19/19/19 59/59/59 60/60/60
f 53/53/53 60/60/60 59/59/59
f 2/2/2 56/56/56 61/61/61
f 18/18/18 61/61/61 62/62/62
f 17/17/17 62/62/62 56/56/56
f 61/61/61 56/56/56 62/62/62
f 8/8/8 65/65/65 63/63/63
f 19/19/19 63/63/63 64/64/64
f 18/18/18 64/64/64 65/65/65
f 63/63/63 65/65/65 64/64/64
f 17/17/17 59/59/59 62/62/62
f 18/18/18 62/62/62 64/64/64
f 19/19/19 64/64/64 59/59/59
f 62/62/62 59/59/59 64/64/64
f 1/1/1 67/67/67 60/60/60
f 19/19/19 60/60/60 66/66/66
f 21/21/21 66/66/66 67/67/67
f 60/60/60 67/67/67 66/66/66
f 8/8/8 63/63/63 68/68/68
f 20/20/20 68/68/68 69/69/69
f 19/19/19 69/69/69 63/63/63
f 68/68/68 63/63/63 69/69/69
f 11/11/11 72/72/72 70/70/70
f 21/21/21 70/70/70 71/71/71
f 20/20/20 71/71/71 72/72/72
f 70/70/70 72/72/72 71/71/71
f 19/19/19 66/66/66 69/69/69
f 20/20/20 69/69/69 71/71/71
f 21/21/21 71/71/71 66/66/66
f 69/69/69 66/66/66 71/71/71
f 1/1/1 43/43/43 67/67/67
f 21/21/21 67/67/67 73/73/73
f 13/13/13 73/73/73 43/43/43
f 67/67/67 43/43/43 73/73/73
f 11/11/11 70/70/70 74/74/74
f 22/22/22 74/74/74 75/75/75
f 21/21/21 75/75/75 70/70/70
f 74/74/74 70/70/70 75/75/75
f 12/12/12 77/77/77 48/48/48
f 13/13/13 48/48/48 76/76/76
f 22/22/22 76/76/76 77/77/77
f 48/48/48 77/77/77 76/76/76
f 21/21/21 73/73/73 75/75/75
f 22/22/22 75/75/75 76/76/76
f 13/13/13 76/76/76 73/73/73
f 75/75/75 73/73/73 76/76/76
f 2/2/2 79/79/79 58/58/58
f 16/16/16 58/58/58 78/78/78
f 24/24/24 78/78/78 79/79/79
f 58/58/58 79/79/79 78/78/78
f 6/6/6 54/54/54 80/80/80
f 23/23/23 80/80/80 81/81/81
f 16/16/16 81/81/81 54/54/54
f 80/80/80 54/54/54 81/81/81
f 10/10/10 84/84/84 82/82/82
f 24/24/24 82/82/82 83/83/83
f 23/23/23 83/83/83 84/84/84
f 82/82/82 84/84/84 83/83/83
f 16/16/16 78/78/78 81/81/81
f 23/23/23 81/81/81 83/83/83
f 24/24/24 83/83/83 78/78/78
f 81/81/81 78/78/78 83/83/83
f 6/6/6 86/86/86 51/51/51
f 14/14/14 51/51/51 85/85/85
f 26/26/26 85/85/85 86/86/86
f 51/51/51 86/86/86 85/85/85
f 12/12/12 46/46/46 87/87/87
f 25/25/25 87/87/87 88/88/88
f 14/14/14 88/88/88 46/46/46
f 87/87/87 46/46/46 88/88/88
f 5/5/5 91/91/91 89/89/89
f 26/26/26 89/89/89 90/90/90
f 25/25/25 90/90/90 91/91/91
f 89/89/89 91/91/91 90/90/90
f 14/14/14 85/85/85 88/88/88
f 25/25/25 88/88/88 90/90/90
f 26/26/26 90/90/90 85/85/85
f 88/88/88 85/85/85 90/90/90
f 12/12/12 93/93/93 77/77/77
f 22/22/22 77/77/77 92/92/92
f 28/28/28 92/92/92 93/93/93
f 77/77/77 93/93/93 92/92/92
f 11/11/11 74/74/74 94/94/94
f 27/27/27 94/94/94 95/95/95
f 22/22/22 95/95/95 74/74/74
f 94/94/94 74/74/74 95/95/95
f 3/3/3 98/98/98 96/96/96
f 28/28/28 96/96/96 97/97/97
f 27/27/27 97/97/97 98/98/98
f 96/96/96 98/98/98 97/97/97
f 22/22/22 92/92/92 95/95/95
f 27/27/27 95/95/95 97/97/97
f 28/28/28 97/97/97 92/92/92
f 95/95/95 92/92/92 97/97/97
f 11/11/11 100/100/100 72/72/72
f 20/20/20 72/72/72 99/99/99
f 30/30/30 99/99/99 100/100/100
f 72/72/72 100/100/100 99/99/99
f 8/8/8 68/68/68 101/101/101
f 29/29/29 101/101/101 102/102/102
f 20/20/20 102/102/102 68/68/68
f 101/101/101 68/68/68 102/102/102
f 7/7/7 105/105/105 103/103/103
f 30/30/30 103/103/103 104/104/104
f 29/29/29 104/104/104 105/105/105
f 103/103/103 105/105/105 104/104/104
f 20/20/20 99/99/99 102/102/102
f 29/29/29 102/102/102 104/104/104
f 30/30/30 104/104/104 99/99/99
f 102/102/102 99/99/99 104/104/104
f 8/8/8 107/107/107 65/65/65
f 18/18/18 65/65/65 106/106/106
f 32/32/32 106/106/106 107/107/107
f 65/65/65 107/107/107 106/106/106
f 2/2/2 61/61/61 108/108/108
f 31/31/31 108/108/108 109/109/109
f 18/18/18 109/109/109 61/61/61
f 108/108/108 61/61/61 109/109/109
f 9/9/9 112/112/112 110/110/110
f 32/32/32 110/110/110 111/111/111
f 31/31/31 111/111/111 112/112/112
f 110/110/110 112/112/112 111/111/111
f 18/18/18 106/106/106 109/109/109
f 31/31/31 109/109/109 111/111/111
f 32/32/32 111/111/111 106/106/106
f 109/109/109 106/106/106 111/111/111
f 4/4/4 115/115/115 113/113/113
f 33/33/33 113/113/113 114/114/114
f 35/35/35 114/114/114 115/115/115
f 113/113/113 115/115/115 114/114/114
f 10/10/10 118/118/118 116/116/116
f 34/34/34 116/116/116 117/117/117
f 33/33/33 117/117/117 118/118/118
f 116/116/116 118/118/118 117/117/117
f 5/5/5 121/121/121 119/119/119
f 35/35/35 119/119/119 120/120/120
f 34/34/34 120/120/120 121/121/121
f 119/119/119 121/121/121 120/120/120
f 33/33/33 114/114/114 117/117/117
f 34/34/34 117/117/117 120/120/120
f 35/35/35 120/120/120 114/114/114
f 117/117/117 114/114/114 120/120/120
f 4/4/4 123/123/123 115/115/115
f 35/35/35 115/115/115 122/122/122
f 37/37/37 122/122/122 123/123/123
f 115/115/115 123/123/123 122/122/122
f 5/5/5 119/119/119 124/124/124
f 36/36/36 124/124/124 125/125/125
f 35/35/35 125/125/125 119/119/119
f 124/124/124 119/119/119 125/125/125
f 3/3/3 128/128/128 126/126/126
f 37/37/37 126/126/126 127/127/127
f 36/36/36 127/127/127 128/128/128
f 126/126/126 128/128/128 127/127/127
f 35/35/35 122/122/122 125/125/125
f 36/36/36 125/125/125 127/127/127
f 37/37/37 127/127/127 122/122/122
f 125/125/125 122/122/122 127/127/127
f 4/4/4 130/130/130 123/123/123
f 37/37/37 123/123/123 129/129/129
f 39/39/39 129/129/129 130/130/130
f 123/123/123 130/130/130 129/129/129
f 3/3/3 126/126/126 131/131/131
f 38/38/38 131/131/131 132/132/132
f 37/37/37 132/132/132 126/126/126
f 131/131/131 126/126/126 132/132/132
f 7/7/7 135/135/135 133/133/133
f 39/39/39 133/133/133 134/134/134
f 38/38/38 134/134/134 135/135/135
f 133/133/133 135/135/135 134/134/134
f 37/37/37 129/129/129 132/132/132
f 38/38/38 132/132/132 134/134/134
f 39/39/39 134/134/134 129/129/129
f 132/132/132 129/129/129 134/134/134
f 4/4/4 137/137/137 130/130/130
f 39/39/39 130/130/130 136/136/136
f 41/41/41 136/136/136 137/137/137
f 130/130/130 137/137/137 136/136/136
f 7/7/7 133/133/133 138/138/138
f 40/40/40 138/138/138 139/139/139
f 39/39/39 139/139/139 133/133/133
f 138/138/138 133/133/133 139/139/139
f 9/9/9 142/142/142 140/140/140
f 41/41/41 140/140/140 141/141/141
f 40/40/40 141/141/141 142/142/142
f 140/140/140 142/142/142 141/141/141
f 39/39/39 136/136/136 139/139/139
f 40/40/40 139/139/139 141/141/141
f 41/41/41 141/141/141 136/136/136
f 139/139/139 136/136/136 141/141/141
f 4/4/4 113/113/113 137/137/137
f 41/41/41 137/137/137 143/143/143
f 33/33/33 143/143/143 113/113/113
f 137/137/137 113/113/113 143/143/143
f 9/9/9 140/140/140 144/144/144
f 42/42/42 144/144/144 145/145/145
f 41/41/41 145/145/145 140/140/140
f 144/144/144 140/140/140 145/145/145
f 10/10/10 147/147/147 118/118/118
f 33/33/33 118/118/118 146/146/146
f 42/42/42 146/146/146 147/147/147
f 118/118/118 147/147/147 146/146/146
f 41/41/41 143/143/143 145/145/145
f 42/42/42 145/145/145 146/146/146
f 33/33/33 146/146/146 143/143/143
f 145/145/145 143/143/143 146/146/146
f 5/5/5 89/89/89 121/121/121
f 34/34/34 121/121/121 148/148/148
f 26/26/26 148/148/148 89/89/89
f 121/121/121 89/89/89 148/148/148
f 10/10/10 116/116/116 84/84/84
f 23/23/23 84/84/84 149/149/149
f 34/34/34 149/149/149 116/116/116
f 84/84/84 116/116/116 149/149/149
f 6/6/6 80/80/80 86/86/86
f 26/26/26 86/86/86 150/150/150
f 23/23/23 150/150/150 80/80/80
f 86/86/86 80/80/80 150/150/150
f 34/34/34 148/148/148 149/149/149
f 23/23/23 149/149/149 150/150/150
f 26/26/26 150/150/150 148/148/148
f 149/149/149 148/148/148 150/150/150
f 3/3/3 96/96/96 128/128/128
f 36/36/36 128/128/128 151/151/151
f 28/28/28 151/151/151 96/96/96
f 128/128/128 96/96/96 151/151/151
f 5/5/5 124/124/124 91/91/91
f 25/25/25 91/91/91 152/152/152
f 36/36/36 152/152/152 124/124/124
f 91/91/91 124/124/124 152/152/152
f 12/12/12 87/87/87 93/93/93
f 28/28/28 93/93/93 153/153/153
f 25/25/25 153/153/153 87/87/87
f 93/93/93 87/87/87 153/153/153
f 36/36/36 151/151/151 152/152/152
f 25/25/25 152/152/152 153/153/153
f 28/28/28 153/153/153 151/151/151
f 152/152/152 151/151/151 153/153/153
f 7/7/7 103/103/103 135/135/135
f 38/38/38 135/135/135 154/154/154
f 30/30/30 154/154/154 103/103/103
f 135/135/135 103/103/103 154/154/154
f 3/3/3 131/131/131 98/98/98
f 27/27/27 98/98/98 155/155/155
f 38/38/38 155/155/155 131/131/131
f 98/98/98 131/131/131 155/155/155
f 11/11/11 94/94/94 100/100/100
f 30/30/30 100/100/100 156/156/156
f 27/27/27 156/156/156 94/94/94
f 100/100/100 94/94/94 156/156/156
f 38/38/38 154/154/154 155/155/155
f 27/27/27 155/155/155 156/156/156
f 30/30/30 156/156/156 154/154/154
f 155/155/155 154/154/154 156/156/156
f 9/9/9 110/110/110 142/142/142
f 40/40/40 142/142/142 157/157/157
f 32/32/32 157/157/157 110/110/110
f 142/142/142 110/110/110 157/157/157
f 7/7/7 138/138/138 105/105/105
f 29/29/29 105/105/105 158/158/158
f 40/40/40 158/158/158 138/138/138
f 105/105/105 138/138/138 158/158/158
f 8/8/8 101/101/101 107/107/107
f 32/32/32 107/107/107 159/159/159
f 29/29/29 159/159/159 101/101/101
f 107/107/107 101/101/101 159/159/159
f 40/40/40 157/157/157 158/158/158
f 29/29/29 158/158/158 159/159/159
f 32/32/32 159/159/159 157/157/157
f 158/158/158 157/157/157 159/159/159
f 10/10/10 82/82/82 147/147/147
f 42/42/42 147/147/147 160/160/160
f 24/24/24 160/160/160 82/82/82
f 147/147/147 82/82/82 160/160/160
f 9/9/9 144/144/144 112/112/112
f 31/31/31 112/112/112 161/161/161
f 42/42/42 161/161/161 144/144/144
f 112/112/112 144/144/144 161/161/161
f 2/2/2 108/108/108 79/79/79
f 24/24/24 79/79/79 162/162/162
f 31/31/31 162/162/162 108/108/108
f 79/79/79 108/108/108 162/162/162
f 42/42/42 160/160/160 161/161/161
f 31/31/31 161/161/161 162/162/162
f 24/24/24 162/162/162 160/160/160
f 161/161/161 160/160/160 162/162/162
