g SkydomeCullTopBottomLod2
v 0.8806219 0.4738196 0
v -0.8806219 -0.4738196 0
v -0.2628655 -0.4552965 0.8506508
v 0.2628655 0.4552965 0.8506508
v -0.2628655 -0.4552965 -0.8506508
v 0.2628655 0.4552965 -0.8506508
v -0.7366852 0.4253254 -0.5257311
v -0.7366852 0.4253254 0.5257311
v 0.7366852 -0.4253254 -0.5257311
v 0.7366852 -0.4253254 0.5257311
v 0.9506293 0.02850421 0.309017
v 0.5875212 0.01761657 0.809017
v 0.6721251 0.5461208 0.5
v 0.1368919 0.8551378 0.5
v 0.5 0.8660254 0
v 0.1368919 0.8551378 -0.5
v 0.6721251 0.5461208 -0.5
v 0.5875212 0.01761657 -0.809017
v 0.9506293 0.02850421 -0.309017
v 0.8660254 -0.5 0
v -0.2785042 0.5176166 0.809017
v -0.4506292 0.8375212 0.309017
v 0.2785042 -0.5176166 0.809017
v 0 0 1
v 0 0 -1
v 0.2785042 -0.5176166 -0.809017
v -0.4506292 0.8375212 -0.309017
v -0.2785042 0.5176166 -0.809017
v -0.9506293 -0.02850421 0.309017
v -0.5875212 -0.01761657 0.809017
v -0.6721251 -0.5461208 0.5
v -0.6721251 -0.5461208 -0.5
v -0.5875212 -0.01761657 -0.809017
v -0.9506293 -0.02850421 -0.309017
v -0.8660254 0.5 0
v 0.9518547 0.2610998 0.160622
v 0.8531325 0.3020982 0.4253254
v 0.8070928 0.5301485 0.2598919
v 0.6883011 -0.2119205 0.6937805
v 0.8086536 0.02424712 0.5877852
v 0.8770388 -0.2062612 0.4338885
v 0.485993 0.5205205 0.7020464
v 0.6622353 0.2963743 0.6881909
v 0.4420173 0.2458126 0.8626685
v 0.6162227 0.7424092 0.2628656
v 0.7176249 0.6964298 0
v 0.2077875 0.6811426 0.7020465
v 0.4253255 0.7366852 0.5257311
v 0.2443134 0.9696963 0
v 0.3348339 0.9048691 0.2628656
v 0.05557573 0.9640371 0.2598919
v 0.6162227 0.7424092 -0.2628656
v 0.8070928 0.5301485 -0.2598919
v 0.05557573 0.9640371 -0.2598919
v 0.3348339 0.9048691 -0.2628656
v 0.485993 0.5205205 -0.7020464
v 0.4253255 0.7366852 -0.5257311
v 0.2077875 0.6811426 -0.7020465
v 0.8531325 0.3020982 -0.4253254
v 0.9518547 0.2610998 -0.160622
v 0.4420173 0.2458126 -0.8626685
v 0.6622353 0.2963743 -0.6881909
v 0.8770388 -0.2062612 -0.4338885
v 0.8086536 0.02424712 -0.5877852
v 0.6883011 -0.2119205 -0.6937805
v 0.9995508 0.02997109 0
v 0.833063 -0.4809692 -0.2732665
v 0.9550719 -0.24788 -0.1624599
v 0.9550719 -0.24788 0.1624599
v 0.833063 -0.4809692 0.2732665
v -0.1649415 0.8898835 0.4253254
v -0.2498083 0.9548803 0.160622
v -0.008128732 0.5057045 0.8626685
v -0.07444999 0.7216997 0.6881909
v -0.6171468 0.6564072 0.4338885
v -0.3833281 0.7124381 0.5877852
v -0.527679 0.490126 0.6937805
v 0.3088782 0.009261577 0.9510565
v 0.1366332 0.2366557 0.9619383
v 0.527679 -0.490126 0.6937805
v 0.4552965 -0.2628655 0.8506508
v -0.1366332 -0.2366557 0.9619383
v 0.1464183 -0.2721272 0.9510565
v 0.008128732 -0.5057045 0.8626685
v 0.4552965 -0.2628655 -0.8506508
v 0.527679 -0.490126 -0.6937805
v 0.1366332 0.2366557 -0.9619383
v 0.3088782 0.009261577 -0.9510565
v 0.008128732 -0.5057045 -0.8626685
v 0.1464183 -0.2721272 -0.9510565
v -0.1366332 -0.2366557 -0.9619383
v -0.07444999 0.7216997 -0.6881909
v -0.008128732 0.5057045 -0.8626685
v -0.2498083 0.9548803 -0.160622
v -0.1649415 0.8898835 -0.4253254
v -0.527679 0.490126 -0.6937805
v -0.3833281 0.7124381 -0.5877852
v -0.6171468 0.6564072 -0.4338885
v -0.9518547 -0.2610998 0.160622
v -0.8531325 -0.3020982 0.4253254
v -0.8070928 -0.5301485 0.2598919
v -0.6883011 0.2119205 0.6937805
v -0.8086536 -0.02424712 0.5877852
v -0.8770388 0.2062612 0.4338885
v -0.485993 -0.5205205 0.7020464
v -0.6622353 -0.2963743 0.6881909
v -0.4420173 -0.2458126 0.8626685
v -0.8070928 -0.5301485 -0.2598919
v -0.485993 -0.5205205 -0.7020464
v -0.8531325 -0.3020982 -0.4253254
v -0.9518547 -0.2610998 -0.160622
v -0.4420173 -0.2458126 -0.8626685
v -0.6622353 -0.2963743 -0.6881909
v -0.8770388 0.2062612 -0.4338885
v -0.8086536 -0.02424712 -0.5877852
v -0.6883011 0.2119205 -0.6937805
v -0.9995508 -0.02997109 0
v -0.833063 0.4809692 -0.2732665
v -0.9550719 0.24788 -0.1624599
v -0.9550719 0.24788 0.1624599
v -0.833063 0.4809692 0.2732665
v -0.3088782 -0.009261577 0.9510565
v -0.4552965 0.2628655 0.8506508
v -0.1464183 0.2721272 0.9510565
v -0.4552965 0.2628655 -0.8506508
v -0.3088782 -0.009261577 -0.9510565
v -0.1464183 0.2721272 -0.9510565
v -0.6922064 0.7031766 0.1624599
v -0.6922064 0.7031766 -0.1624599
v -0.4738196 0.8806219 0
vn 0.8806219 0.4738196 0
vn -0.8806219 -0.4738196 0
vn -0.2628655 -0.4552965 0.8506508
vn 0.2628655 0.4552965 0.8506508
vn -0.2628655 -0.4552965 -0.8506508
vn 0.2628655 0.4552965 -0.8506508
vn -0.7366852 0.4253254 -0.5257311
vn -0.7366852 0.4253254 0.5257311
vn 0.7366852 -0.4253254 -0.5257311
vn 0.7366852 -0.4253254 0.5257311
vn 0.9506293 0.02850421 0.309017
vn 0.5875212 0.01761657 0.809017
vn 0.6721251 0.5461208 0.5
vn 0.1368919 0.8551378 0.5
vn 0.5 0.8660254 0
vn 0.1368919 0.8551378 -0.5
vn 0.6721251 0.5461208 -0.5
vn 0.5875212 0.01761657 -0.809017
vn 0.9506293 0.02850421 -0.309017
vn 0.8660254 -0.5 0
vn -0.2785042 0.5176166 0.809017
vn -0.4506292 0.8375212 0.309017
vn 0.2785042 -0.5176166 0.809017
vn 0 0 1
vn 0 0 -1
vn 0.2785042 -0.5176166 -0.809017
vn -0.4506292 0.8375212 -0.309017
vn -0.2785042 0.5176166 -0.809017
vn -0.9506293 -0.02850421 0.309017
vn -0.5875212 -0.01761657 0.809017
vn -0.6721251 -0.5461208 0.5
vn -0.6721251 -0.5461208 -0.5
vn -0.5875212 -0.01761657 -0.809017
vn -0.9506293 -0.02850421 -0.309017
vn -0.8660254 0.5 0
vn 0.9518547 0.2610998 0.160622
vn 0.8531325 0.3020982 0.4253254
vn 0.8070928 0.5301485 0.2598919
vn 0.6883011 -0.2119205 0.6937805
vn 0.8086536 0.02424712 0.5877852
vn 0.8770388 -0.2062612 0.4338885
vn 0.485993 0.5205205 0.7020464
vn 0.6622353 0.2963743 0.6881909
vn 0.4420173 0.2458126 0.8626685
vn 0.6162227 0.7424092 0.2628656
vn 0.7176249 0.6964298 0
vn 0.2077875 0.6811426 0.7020465
vn 0.4253255 0.7366852 0.5257311
vn 0.2443134 0.9696963 0
vn 0.3348339 0.9048691 0.2628656
vn 0.05557573 0.9640371 0.2598919
vn 0.6162227 0.7424092 -0.2628656
vn 0.8070928 0.5301485 -0.2598919
vn 0.05557573 0.9640371 -0.2598919
vn 0.3348339 0.9048691 -0.2628656
vn 0.485993 0.5205205 -0.7020464
vn 0.4253255 0.7366852 -0.5257311
vn 0.2077875 0.6811426 -0.7020465
vn 0.8531325 0.3020982 -0.4253254
vn 0.9518547 0.2610998 -0.160622
vn 0.4420173 0.2458126 -0.8626685
vn 0.6622353 0.2963743 -0.6881909
vn 0.8770388 -0.2062612 -0.4338885
vn 0.8086536 0.02424712 -0.5877852
vn 0.6883011 -0.2119205 -0.6937805
vn 0.9995508 0.02997109 0
vn 0.833063 -0.4809692 -0.2732665
vn 0.9550719 -0.24788 -0.1624599
vn 0.9550719 -0.24788 0.1624599
vn 0.833063 -0.4809692 0.2732665
vn -0.1649415 0.8898835 0.4253254
vn -0.2498083 0.9548803 0.160622
vn -0.008128732 0.5057045 0.8626685
vn -0.07444999 0.7216997 0.6881909
vn -0.6171468 0.6564072 0.4338885
vn -0.3833281 0.7124381 0.5877852
vn -0.527679 0.490126 0.6937805
vn 0.3088782 0.009261577 0.9510565
vn 0.1366332 0.2366557 0.9619383
vn 0.527679 -0.490126 0.6937805
vn 0.4552965 -0.2628655 0.8506508
vn -0.1366332 -0.2366557 0.9619383
vn 0.1464183 -0.2721272 0.9510565
vn 0.008128732 -0.5057045 0.8626685
vn 0.4552965 -0.2628655 -0.8506508
vn 0.527679 -0.490126 -0.6937805
vn 0.1366332 0.2366557 -0.9619383
vn 0.3088782 0.009261577 -0.9510565
vn 0.008128732 -0.5057045 -0.8626685
vn 0.1464183 -0.2721272 -0.9510565
vn -0.1366332 -0.2366557 -0.9619383
vn -0.07444999 0.7216997 -0.6881909
vn -0.008128732 0.5057045 -0.8626685
vn -0.2498083 0.9548803 -0.160622
vn -0.1649415 0.8898835 -0.4253254
vn -0.527679 0.490126 -0.6937805
vn -0.3833281 0.7124381 -0.5877852
vn -0.6171468 0.6564072 -0.4338885
vn -0.9518547 -0.2610998 0.160622
vn -0.8531325 -0.3020982 0.4253254
vn -0.8070928 -0.5301485 0.2598919
vn -0.6883011 0.2119205 0.6937805
vn -0.8086536 -0.02424712 0.5877852
vn -0.8770388 0.2062612 0.4338885
vn -0.485993 -0.5205205 0.7020464
vn -0.6622353 -0.2963743 0.6881909
vn -0.4420173 -0.2458126 0.8626685
vn -0.8070928 -0.5301485 -0.2598919
vn -0.485993 -0.5205205 -0.7020464
vn -0.8531325 -0.3020982 -0.4253254
vn -0.9518547 -0.2610998 -0.160622
vn -0.4420173 -0.2458126 -0.8626685
vn -0.6622353 -0.2963743 -0.6881909
vn -0.8770388 0.2062612 -0.4338885
vn -0.8086536 -0.02424712 -0.5877852
vn -0.6883011 0.2119205 -0.6937805
vn -0.9995508 -0.02997109 0
vn -0.833063 0.4809692 -0.2732665
vn -0.9550719 0.24788 -0.1624599
vn -0.9550719 0.24788 0.1624599
vn -0.833063 0.4809692 0.2732665
vn -0.3088782 -0.009261577 0.9510565
vn -0.4552965 0.2628655 0.8506508
vn -0.1464183 0.2721272 0.9510565
vn -0.4552965 0.2628655 -0.8506508
vn -0.3088782 -0.009261577 -0.9510565
vn -0.1464183 0.2721272 -0.9510565
vn -0.6922064 0.7031766 0.1624599
vn -0.6922064 0.7031766 -0.1624599
vn -0.4738196 0.8806219 0
vt 0 0
vt 0 0
vt 0 0
vt 0 0
vt 0 0
vt 0 0
vt 0 0
vt 0 0
vt 0 0
vt 0 0
vt 0 0
vt 0 0
vt 0 0
vt 0 0
vt 0 0
vt 0 0
vt 0 0
vt 0 0
vt 0 0
vt 0 0
vt 0 0
vt 0 0
vt 0 0
vt 0 0
vt 0 0
vt 0 0
vt 0 0
vt 0 0
vt 0 0
vt 0 0
vt 0 0
vt 0 0
vt 0 0
vt 0 0
vt 0 0
vt 0 0
vt 0 0
vt 0 0
vt 0 0
vt 0 0
vt 0 0
vt 0 0
vt 0 0
vt 0 0
vt 0 0
vt 0 0
vt 0 0
vt 0 0
vt 0 0
vt 0 0
vt 0 0
vt 0 0
vt 0 0
vt 0 0
vt 0 0
vt 0 0
vt 0 0
vt 0 0
vt 0 0
vt 0 0
vt 0 0
vt 0 0
vt 0 0
vt 0 0
vt 0 0
vt 0 0
vt 0 0
vt 0 0
vt 0 0
vt 0 0
vt 0 0
vt 0 0
vt 0 0
vt 0 0
vt 0 0
vt 0 0
vt 0 0
vt 0 0
vt 0 0
vt 0 0
vt 0 0
vt 0 0
vt 0 0
vt 0 0
vt 0 0
vt 0 0
vt 0 0
vt 0 0
vt 0 0
vt 0 0
vt 0 0
vt 0 0
vt 0 0
vt 0 0
vt 0 0
vt 0 0
vt 0 0
vt 0 0
vt 0 0
vt 0 0
vt 0 0
vt 0 0
vt 0 0
vt 0 0
vt 0 0
vt 0 0
vt 0 0
vt 0 0
vt 0 0
vt 0 0
vt 0 0
vt 0 0
vt 0 0
vt 0 0
vt 0 0
vt 0 0
vt 0 0
vt 0 0
vt 0 0
vt 0 0
vt 0 0
vt 0 0
vt 0 0
vt 0 0
vt 0 0
vt 0 0
vt 0 0
vt 0 0
vt 0 0
vt 0 0
f 1/1/1 38/38/38 36/36/36
f 11/11/11 36/36/36 37/37/37
f 13/13/13 37/37/37 38/38/38
f 36/36/36 38/38/38 37/37/37
f 10/10/10 41/41/41 39/39/39
f 12/12/12 39/39/39 40/40/40
f 11/11/11 40/40/40 41/41/41
f 39/39/39 41/41/41 40/40/40
f 4/4/4 44/44/44 42/42/42
f 13/13/13 42/42/42 43/43/43
f 12/12/12 43/43/43 44/44/44
f 42/42/42 44/44/44 43/43/43
f 11/11/11 37/37/37 40/40/40
f 12/12/12 40/40/40 43/43/43
f 13/13/13 43/43/43 37/37/37
f 40/40/40 37/37/37 43/43/43
f 1/1/1 46/46/46 38/38/38
f 13/13/13 38/38/38 45/45/45
f 15/15/15 45/45/45 46/46/46
f 38/38/38 46/46/46 45/45/45
f 4/4/4 42/42/42 47/47/47
f 14/14/14 47/47/47 48/48/48
f 13/13/13 48/48/48 42/42/42
f 47/47/47 42/42/42 48/48/48
f 15/15/15 49/49/49 50/50/50
f 14/14/14 50/50/50 51/51/51
f 13/13/13 45/45/45 48/48/48
f 14/14/14 48/48/48 50/50/50
f 15/15/15 50/50/50 45/45/45
f 48/48/48 45/45/45 50/50/50
f 1/1/1 53/53/53 46/46/46
f 15/15/15 46/46/46 52/52/52
f 17/17/17 52/52/52 53/53/53
f 46/46/46 53/53/53 52/52/52
f 16/16/16 54/54/54 55/55/55
f 15/15/15 55/55/55 49/49/49
f 6/6/6 58/58/58 56/56/56
f 17/17/17 56/56/56 57/57/57
f 16/16/16 57/57/57 58/58/58
f 56/56/56 58/58/58 57/57/57
f 15/15/15 52/52/52 55/55/55
f 16/16/16 55/55/55 57/57/57
f 17/17/17 57/57/57 52/52/52
f 55/55/55 52/52/52 57/57/57
f 1/1/1 60/60/60 53/53/53
f 17/17/17 53/53/53 59/59/59
f 19/19/19 59/59/59 60/60/60
f 53/53/53 60/60/60 59/59/59
f 6/6/6 56/56/56 61/61/61
f 18/18/18 61/61/61 62/62/62
f 17/17/17 62/62/62 56/56/56
f 61/61/61 56/56/56 62/62/62
f 9/9/9 65/65/65 63/63/63
f 19/19/19 63/63/63 64/64/64
f 18/18/18 64/64/64 65/65/65
f 63/63/63 65/65/65 64/64/64
f 17/17/17 59/59/59 62/62/62
f 18/18/18 62/62/62 64/64/64
f 19/19/19 64/64/64 59/59/59
f 62/62/62 59/59/59 64/64/64
f 1/1/1 36/36/36 60/60/60
f 19/19/19 60/60/60 66/66/66
f 11/11/11 66/66/66 36/36/36
f 60/60/60 36/36/36 66/66/66
f 9/9/9 63/63/63 67/67/67
f 20/20/20 67/67/67 68/68/68
f 19/19/19 68/68/68 63/63/63
f 67/67/67 63/63/63 68/68/68
f 10/10/10 70/70/70 41/41/41
f 11/11/11 41/41/41 69/69/69
f 20/20/20 69/69/69 70/70/70
f 41/41/41 70/70/70 69/69/69
f 19/19/19 66/66/66 68/68/68
f 20/20/20 68/68/68 69/69/69
f 11/11/11 69/69/69 66/66/66
f 68/68/68 66/66/66 69/69/69
f 14/14/14 51/51/51 71/71/71
f 22/22/22 71/71/71 72/72/72
f 51/51/51 72/72/72 71/71/71
f 4/4/4 47/47/47 73/73/73
f 21/21/21 73/73/73 74/74/74
f 14/14/14 74/74/74 47/47/47
f 73/73/73 47/47/47 74/74/74
f 8/8/8 77/77/77 75/75/75
f 22/22/22 75/75/75 76/76/76
f 21/21/21 76/76/76 77/77/77
f 75/75/75 77/77/77 76/76/76
f 14/14/14 71/71/71 74/74/74
f 21/21/21 74/74/74 76/76/76
f 22/22/22 76/76/76 71/71/71
f 74/74/74 71/71/71 76/76/76
f 4/4/4 79/79/79 44/44/44
f 12/12/12 44/44/44 78/78/78
f 24/24/24 78/78/78 79/79/79
f 44/44/44 79/79/79 78/78/78
f 10/10/10 39/39/39 80/80/80
f 23/23/23 80/80/80 81/81/81
f 12/12/12 81/81/81 39/39/39
f 80/80/80 39/39/39 81/81/81
f 3/3/3 84/84/84 82/82/82
f 24/24/24 82/82/82 83/83/83
f 23/23/23 83/83/83 84/84/84
f 82/82/82 84/84/84 83/83/83
f 12/12/12 78/78/78 81/81/81
f 23/23/23 81/81/81 83/83/83
f 24/24/24 83/83/83 78/78/78
f 81/81/81 78/78/78 83/83/83
f 9/9/9 86/86/86 65/65/65
f 18/18/18 65/65/65 85/85/85
f 26/26/26 85/85/85 86/86/86
f 65/65/65 86/86/86 85/85/85
f 6/6/6 61/61/61 87/87/87
f 25/25/25 87/87/87 88/88/88
f 18/18/18 88/88/88 61/61/61
f 87/87/87 61/61/61 88/88/88
f 5/5/5 91/91/91 89/89/89
f 26/26/26 89/89/89 90/90/90
f 25/25/25 90/90/90 91/91/91
f 89/89/89 91/91/91 90/90/90
f 18/18/18 85/85/85 88/88/88
f 25/25/25 88/88/88 90/90/90
f 26/26/26 90/90/90 85/85/85
f 88/88/88 85/85/85 90/90/90
f 6/6/6 93/93/93 58/58/58
f 16/16/16 58/58/58 92/92/92
f 28/28/28 92/92/92 93/93/93
f 58/58/58 93/93/93 92/92/92
f 27/27/27 94/94/94 95/95/95
f 16/16/16 95/95/95 54/54/54
f 94/94/94 54/54/54 95/95/95
f 7/7/7 98/98/98 96/96/96
f 28/28/28 96/96/96 97/97/97
f 27/27/27 97/97/97 98/98/98
f 96/96/96 98/98/98 97/97/97
f 16/16/16 92/92/92 95/95/95
f 27/27/27 95/95/95 97/97/97
f 28/28/28 97/97/97 92/92/92
f 95/95/95 92/92/92 97/97/97
f 2/2/2 101/101/101 99/99/99
f 29/29/29 99/99/99 100/100/100
f 31/31/31 100/100/100 101/101/101
f 99/99/99 101/101/101 100/100/100
f 8/8/8 104/104/104 102/102/102
f 30/30/30 102/102/102 103/103/103
f 29/29/29 103/103/103 104/104/104
f 102/102/102 104/104/104 103/103/103
f 3/3/3 107/107/107 105/105/105
f 31/31/31 105/105/105 106/106/106
f 30/30/30 106/106/106 107/107/107
f 105/105/105 107/107/107 106/106/106
f 29/29/29 100/100/100 103/103/103
f 30/30/30 103/103/103 106/106/106
f 31/31/31 106/106/106 100/100/100
f 103/103/103 100/100/100 106/106/106
f 2/2/2 111/111/111 108/108/108
f 32/32/32 108/108/108 110/110/110
f 34/34/34 110/110/110 111/111/111
f 108/108/108 111/111/111 110/110/110
f 5/5/5 109/109/109 112/112/112
f 33/33/33 112/112/112 113/113/113
f 32/32/32 113/113/113 109/109/109
f 112/112/112 109/109/109 113/113/113
f 7/7/7 116/116/116 114/114/114
f 34/34/34 114/114/114 115/115/115
f 33/33/33 115/115/115 116/116/116
f 114/114/114 116/116/116 115/115/115
f 32/32/32 110/110/110 113/113/113
f 33/33/33 113/113/113 115/115/115
f 34/34/34 115/115/115 110/110/110
f 113/113/113 110/110/110 115/115/115
f 2/2/2 99/99/99 111/111/111
f 34/34/34 111/111/111 117/117/117
f 29/29/29 117/117/117 99/99/99
f 111/111/111 99/99/99 117/117/117
f 7/7/7 114/114/114 118/118/118
f 35/35/35 118/118/118 119/119/119
f 34/34/34 119/119/119 114/114/114
f 118/118/118 114/114/114 119/119/119
f 8/8/8 121/121/121 104/104/104
f 29/29/29 104/104/104 120/120/120
f 35/35/35 120/120/120 121/121/121
f 104/104/104 121/121/121 120/120/120
f 34/34/34 117/117/117 119/119/119
f 35/35/35 119/119/119 120/120/120
f 29/29/29 120/120/120 117/117/117
f 119/119/119 117/117/117 120/120/120
f 3/3/3 82/82/82 107/107/107
f 30/30/30 107/107/107 122/122/122
f 24/24/24 122/122/122 82/82/82
f 107/107/107 82/82/82 122/122/122
f 8/8/8 102/102/102 77/77/77
f 21/21/21 77/77/77 123/123/123
f 30/30/30 123/123/123 102/102/102
f 77/77/77 102/102/102 123/123/123
f 4/4/4 73/73/73 79/79/79
f 24/24/24 79/79/79 124/124/124
f 21/21/21 124/124/124 73/73/73
f 79/79/79 73/73/73 124/124/124
f 30/30/30 122/122/122 123/123/123
f 21/21/21 123/123/123 124/124/124
f 24/24/24 124/124/124 122/122/122
f 123/123/123 122/122/122 124/124/124
f 7/7/7 96/96/96 116/116/116
f 33/33/33 116/116/116 125/125/125
f 28/28/28 125/125/125 96/96/96
f 116/116/116 96/96/96 125/125/125
f 5/5/5 112/112/112 91/91/91
f 25/25/25 91/91/91 126/126/126
f 33/33/33 126/126/126 112/112/112
f 91/91/91 112/112/112 126/126/126
f 6/6/6 87/87/87 93/93/93
f 28/28/28 93/93/93 127/127/127
f 25/25/25 127/127/127 87/87/87
f 93/93/93 87/87/87 127/127/127
f 33/33/33 125/125/125 126/126/126
f 25/25/25 126/126/126 127/127/127
f 28/28/28 127/127/127 125/125/125
f 126/126/126 125/125/125 127/127/127
f 8/8/8 75/75/75 121/121/121
f 35/35/35 121/121/121 128/128/128
f 22/22/22 128/128/128 75/75/75
f 121/121/121 75/75/75 128/128/128
f 7/7/7 118/118/118 98/98/98
f 27/27/27 98/98/98 129/129/129
f 35/35/35 129/129/129 118/118/118
f 98/98/98 118/118/118 129/129/129
f 22/22/22 72/72/72 130/130/130
f 27/27/27 130/130/130 94/94/94
f 72/72/72 94/94/94 130/130/130
f 35/35/35 128/128/128 129/129/129
f 27/27/27 129/129/129 130/130/130
f 22/22/22 130/130/130 128/128/128
f 129/129/129 128/128/128 130/130/130
